<?xml version="1.0" encoding="utf-8"?>

<svg version="1.1" id="Layer_1" xmlns="http://www.w3.org/2000/svg" xmlns:xlink="http://www.w3.org/1999/xlink" x="0px" y="0px"
	 width="1200px" height="1200px" viewBox="0 0 1200 1200" enable-background="new 0 0 1200 1200" xml:space="preserve">
<path fill="#3d85b3" d="M1122.974,955.368L845.95,710.193c-6.335-5.686-13.323-9.829-20.635-13.244
	c35.908-61.397,56.464-132.764,56.464-209.047c0-229.64-186.199-415.815-415.818-415.815C236.237,72.088,50,258.262,50,487.902
	c0,229.723,186.237,415.923,415.961,415.923c82.821,0,160.078-24.374,224.989-66.23c4.384,8.652,10.074,16.754,17.79,23.638
	l277.024,245.159c33.795,30.746,86.112,28.271,116.821-5.649l25.996-28.513C1159.207,1038.394,1156.686,986.156,1122.974,955.368z
	 M465.961,742.727c-140.746,0-254.863-114.1-254.863-254.825c0-140.704,114.117-254.742,254.863-254.742
	c140.583,0,254.721,114.038,254.721,254.742C720.682,628.627,606.543,742.727,465.961,742.727z"/>
</svg>
